<svg width="97" height="35" viewBox="0 0 97 35" fill="none" xmlns="http://www.w3.org/2000/svg">
<circle cx="61" cy="17" r="17" fill="#F9CADA"/>
<path d="M23.6016 8.296L21.2216 7.932V6.196H30.1816V7.932L27.7176 8.296V25.04L30.1816 25.348V27H21.2216V25.32L23.6016 25.04V8.296ZM33.9933 6.532L31.9773 6.168V4.656L37.1293 4.04H37.1853L37.9413 4.572V17.872L37.8573 19.356L43.5693 13.364L41.4973 13.056V11.46H48.8053V13.056L46.5373 13.42L43.0933 16.724L47.9933 25.096L49.5333 25.32V27H42.1413V25.32L43.5693 25.068L40.3773 19.16L37.8573 21.708L37.9133 23.136V25.068L39.6773 25.32V27H32.3693V25.32L33.9933 25.068V6.532ZM57.3707 27.308C54.9067 27.308 53.068 26.5893 51.8547 25.152C50.66 23.696 50.0627 21.7173 50.0627 19.216C50.0627 17.536 50.3707 16.08 50.9867 14.848C51.6214 13.616 52.508 12.6733 53.6467 12.02C54.7854 11.3667 56.1014 11.04 57.5947 11.04C59.4614 11.04 60.8987 11.5347 61.9067 12.524C62.9147 13.4947 63.4374 14.8853 63.4747 16.696C63.4747 17.928 63.4 18.8427 63.2507 19.44H54.1507C54.2254 21.1387 54.6267 22.464 55.3547 23.416C56.0827 24.3493 57.1187 24.816 58.4627 24.816C59.1907 24.816 59.9374 24.6947 60.7027 24.452C61.4867 24.2093 62.1027 23.92 62.5507 23.584L63.2507 25.124C62.7467 25.6653 61.9254 26.1693 60.7867 26.636C59.6667 27.084 58.528 27.308 57.3707 27.308ZM59.5547 17.76C59.592 17.2373 59.6107 16.836 59.6107 16.556C59.6107 14.0733 58.78 12.832 57.1187 12.832C56.204 12.832 55.4947 13.196 54.9907 13.924C54.4867 14.652 54.2067 15.9307 54.1507 17.76H59.5547ZM65.7092 19.244C65.7092 17.4893 66.0546 15.996 66.7452 14.764C67.4546 13.532 68.3972 12.608 69.5732 11.992C70.7492 11.3573 72.0279 11.04 73.4092 11.04C75.7612 11.04 77.5719 11.768 78.8412 13.224C80.1292 14.6613 80.7732 16.6213 80.7732 19.104C80.7732 20.8773 80.4186 22.3893 79.7092 23.64C79.0186 24.872 78.0852 25.796 76.9092 26.412C75.7519 27.0093 74.4732 27.308 73.0732 27.308C70.7399 27.308 68.9292 26.5893 67.6412 25.152C66.3532 23.696 65.7092 21.7267 65.7092 19.244ZM73.2972 25.488C75.4066 25.488 76.4612 23.4533 76.4612 19.384C76.4612 17.256 76.2092 15.6413 75.7052 14.54C75.2012 13.42 74.3799 12.86 73.2412 12.86C71.0759 12.86 69.9932 14.8947 69.9932 18.964C69.9932 21.092 70.2546 22.716 70.7772 23.836C71.3186 24.9373 72.1586 25.488 73.2972 25.488ZM86.4266 24.704C86.5759 24.928 86.9119 25.1427 87.4346 25.348C87.9759 25.5347 88.5173 25.628 89.0586 25.628C89.9359 25.628 90.5893 25.4507 91.0186 25.096C91.4666 24.7227 91.6906 24.2373 91.6906 23.64C91.6906 23.024 91.4199 22.5293 90.8786 22.156C90.3373 21.764 89.4226 21.288 88.1346 20.728L87.3506 20.392C86.0626 19.8507 85.1013 19.1973 84.4666 18.432C83.8319 17.6667 83.5146 16.6773 83.5146 15.464C83.5146 14.624 83.7666 13.8773 84.2706 13.224C84.7746 12.552 85.4839 12.0293 86.3986 11.656C87.3133 11.2827 88.3679 11.096 89.5626 11.096C90.4399 11.096 91.1866 11.152 91.8026 11.264C92.4373 11.376 93.0999 11.5253 93.7906 11.712C94.1639 11.8427 94.4439 11.9173 94.6306 11.936V15.604H92.4186L91.7746 13.476C91.6626 13.2893 91.4106 13.1213 91.0186 12.972C90.6266 12.8227 90.1786 12.748 89.6746 12.748C88.9093 12.748 88.2933 12.916 87.8266 13.252C87.3786 13.5693 87.1546 14.0173 87.1546 14.596C87.1546 15.1187 87.3133 15.5573 87.6306 15.912C87.9479 16.248 88.2933 16.5093 88.6666 16.696C89.0399 16.8827 89.7306 17.1907 90.7386 17.62C91.7466 18.0493 92.5773 18.46 93.2306 18.852C93.9026 19.244 94.4533 19.7573 94.8826 20.392C95.3306 21.008 95.5546 21.764 95.5546 22.66C95.5546 24.0413 95.0133 25.1613 93.9306 26.02C92.8479 26.8787 91.2893 27.308 89.2546 27.308C88.3026 27.308 87.4439 27.224 86.6786 27.056C85.9319 26.888 85.0639 26.664 84.0746 26.384L83.4586 26.188V22.492H85.7826L86.4266 24.704Z" fill="black"/>
</svg>
